PathFileType	4	(X/Y/Z)	54_2_rein_104_p1_0-659.trc
DataRate	CameraRate	NumFrames	NumMarkers	Units	OrigDataRate	OrigDataStartFrame	OrigNumFrames
59.0	59.0	7	27	m	59.0	495	660
Frame#	Time	RHip			RKnee			RAnkle			RBigToe			RSmallToe			RHeel			LHip			LKnee			LAnkle			LBigToe			LSmallToe			LHeel			Neck			Head			Nose			RShoulder			RElbow			RWrist			RThumb			RIndex			RPinky			LShoulder			LElbow			LWrist			LThumb			LIndex			LPinky			
		X1	Y1	Z1	X2	Y2	Z2	X3	Y3	Z3	X4	Y4	Z4	X5	Y5	Z5	X6	Y6	Z6	X7	Y7	Z7	X8	Y8	Z8	X9	Y9	Z9	X10	Y10	Z10	X11	Y11	Z11	X12	Y12	Z12	X13	Y13	Z13	X14	Y14	Z14	X15	Y15	Z15	X16	Y16	Z16	X17	Y17	Z17	X18	Y18	Z18	X19	Y19	Z19	X20	Y20	Z20	X21	Y21	Z21	X22	Y22	Z22	X23	Y23	Z23	X24	Y24	Z24	X25	Y25	Z25	X26	Y26	Z26	X27	Y27	Z27	
495	8.389830508474576	0.2962841182204153	0.5084779153863239	0.9483880949181753	0.28458395147146154	0.5438402010124886	1.4683730518261273	0.2749242779279416	0.5640650308388911	1.924923507361195	0.2187657546993951	0.3605788842518393	1.9369833633479527	0.2796010520523901	0.4046868440471906	1.9665675235053042	0.25217061463213997	0.6497682580946412	2.005971187286137	0.06823378877062637	0.5470947615639071	0.954396878017552	0.08466901654607414	0.5644227955743712	1.4664109193489672	0.06616423954781071	0.5649871775129537	1.8904897324482626	0.06850825498542171	0.3795541631310325	1.9463044418279014	0.013355697039965456	0.42483227061947504	1.9620054555998883	0.08577412929406239	0.6076969742923455	1.9481061208750274	0.20705655808992632	0.5122317944181288	0.4136017216326588	0.2102967708732013	0.4960982113885631	0.16002315971103664	0.19504728669260096	0.4168856899703931	0.2890614778845424	0.3676758630124704	0.5265162678658152	0.520160462478502	0.3943782943125936	0.5474821544999205	0.8175704382227756	0.3703395421752736	0.4393079352394737	1.081934399845489	0.30203851885530525	0.36577822842798563	1.1733316943283134	0.3247241185453376	0.3952213230632891	1.1945070927362271	0.36217036752627846	0.4537505084515335	1.223191171726095	0.041845993861965414	0.5535661001737784	0.49325037776455116	-0.015964414611339486	0.5618942286583325	0.7786624717535495	-0.01464489852187727	0.4790033487895339	1.0563441289582995	0.023482187800544885	0.45554592076381134	1.1529845647339179	-0.0019108662185729156	0.4480500051333114	1.1600401707030816	-0.044247765206306626	0.48759658373314746	1.172807738939956
496	8.40677966101695	0.2957289484610414	0.5082010417962016	0.9522225051304762	0.2846201029236482	0.5438825443526529	1.4684660061299293	0.2758510155733498	0.5649990883338102	1.9304783488170791	0.21533159536773094	0.3513499504300056	1.9307821648436634	0.27945618691135393	0.4040527756638092	1.966468997570931	0.2537471004000003	0.652248188561078	2.0124091780327937	0.06826001058358079	0.546796582437863	0.9543406441056903	0.08474587171369151	0.564290017075948	1.4664149434333082	0.06617979420843963	0.5649765029321503	1.890462201102819	0.06848755617532941	0.3792219046177733	1.946066284636349	0.013360494483299755	0.42474055102922104	1.9619204406325985	0.08581417949916147	0.6078600275493156	1.9481560866179748	0.203481678451108	0.5248066394100132	0.415221278379239	0.20691566661760658	0.4862686051750507	0.15975469357085872	0.1980210106608793	0.4261225092911174	0.2898808267562839	0.36770628027245894	0.5265834709194145	0.5201657508615589	0.3938469326812175	0.546980261145289	0.8137163079382504	0.37031811125488134	0.43947487294271925	1.0819736484725764	0.30203428492011425	0.3657997494425571	1.1732099471644803	0.3220461151336257	0.40809222463495776	1.1996703576331467	0.36217992085136735	0.4536224124028805	1.2231509977444985	0.041848845588939074	0.5535775769927906	0.4932601114133522	-0.015970197154205133	0.5619761660052079	0.7786435488974013	-0.014662610830189023	0.4790206346935864	1.056401263248325	0.023482762468923245	0.4556423927227346	1.15306524760987	-0.0016451084713143033	0.4484878614079916	1.1601890169733835	-0.04417961881865897	0.4876284888055229	1.17278596644064
497	8.423728813559322	0.296212726181366	0.5090625783738595	0.9567341265577722	0.2847777674864457	0.5443143281533099	1.4685940079739994	0.27502069067665724	0.5639942713653886	1.9248840096033277	0.21763908886049613	0.36076892231088187	1.942672171250868	0.279640066510165	0.40465993069288075	1.9666279270447335	0.25234206089343925	0.6500518483686923	2.006056678440865	0.06818252051386457	0.5467581185705607	0.9544694571800064	0.0828917717386277	0.5650194127333755	1.4614808017149865	0.06992133477181997	0.5677253693274628	1.8920819763463916	0.07157092809266387	0.39088517865186967	1.9541552794364265	0.013324106492243274	0.4248708741219391	1.96195921434978	0.08579170870699078	0.607695108061009	1.9480852099784198	0.20343629529275956	0.5247408419695166	0.41519258450485935	0.21019122117017336	0.4957358238299793	0.16005880921308918	0.1950316138186379	0.4169340446010532	0.2890794306396748	0.3676867837499589	0.5265342941440581	0.5201495040177457	0.3944085710571002	0.5479422386192524	0.81762658141622	0.3703704847253777	0.4395391155192312	1.081966858173807	0.3050930326101072	0.37563637646394643	1.1807114709951065	0.3241572374979444	0.395599713998647	1.198174955800414	0.36213742696948725	0.45392407267673096	1.2231826351370079	0.04179387781255932	0.5534718067418107	0.4931961709430707	-0.019684562803016333	0.5591653168294529	0.7779450140655244	-0.014461973684949355	0.4786880599950037	1.0561687935711406	0.02350433455312857	0.45560113501400046	1.153078103562049	-0.001655359400878762	0.4483125679282955	1.160126891865243	-0.039605152894597755	0.47459150074138706	1.1677248550909567
498	8.440677966101696	0.29574769225202385	0.5081344657701014	0.9523075929853124	0.28470340853113385	0.5440732205590113	1.4685379353169308	0.2750879164786899	0.5641848934443954	1.9249830238702217	0.21765254597489003	0.36075141111994175	1.9426323975274495	0.2796772371375738	0.4046775481466651	1.9665667989925315	0.2536681246221818	0.6518492197226508	2.012092885319869	0.06826987046143385	0.5455156397713768	0.957767938341613	0.08290912483958299	0.5649427741397588	1.461332113783139	0.06995763342802801	0.5676244315336988	1.892006435270173	0.07164170524007542	0.3910436004441479	1.9542327439083553	0.013354051622038936	0.4248478649108886	1.9619524528789178	0.0858078993458807	0.6074163313701127	1.9480189009148574	0.2070205009712313	0.5121108201131005	0.41358453781490034	0.21022165548436453	0.49578649209573966	0.16008826523232758	0.19799181001640018	0.4261653458676643	0.28983068410430524	0.3634605472362854	0.516359802985419	0.5185211855978088	0.39441593209624565	0.5479326827288565	0.8176279080418629	0.3703390275668013	0.4393402222335077	1.0819277870315422	0.3020158240791627	0.36577205989813577	1.1732775165465652	0.3213501578384299	0.40821850425324885	1.2033634374559967	0.3621947871270222	0.4538785883203944	1.223194910169192	0.041832445841526296	0.5535225813691582	0.49325020395517666	-0.019694589106604186	0.559145471292263	0.7779767602405031	-0.019417269185747214	0.49195347770232356	1.0608702535708627	0.023465024836501303	0.45565756647463523	1.1530523762117282	-0.001618540551354691	0.4483694096532129	1.1600597432974173	-0.04418710638268964	0.4873939717035039	1.1727286241942712
499	8.457627118644067	0.29618106049938514	0.5087344466432241	0.9568508150783069	0.28472108629922765	0.5444065293011576	1.4686893925144586	0.2750930595078461	0.5643247036285606	1.924961620475134	0.22220490173807597	0.3697429433993312	1.9434900821165755	0.2796970264671989	0.40469715797707034	1.966571819806088	0.2525496968890674	0.6505065117089266	2.006285637640613	0.06779006730943875	0.545234783249504	0.9613365908501094	0.08358811255265604	0.5660877437076332	1.4670324382710962	0.06999512584913371	0.5676630389095185	1.892043929183743	0.07181596078060007	0.391151687157131	1.9543242607204803	0.013387142865547343	0.42489605478095055	1.961984308206336	0.08449728719273583	0.6074701393177564	1.953887670391928	0.20704519385652978	0.5120934584066531	0.4135491887904543	0.20690383567381052	0.48620171282964003	0.1597749395235128	0.19799567986312638	0.42616323527624494	0.2898281199550555	0.3677342600492554	0.5265372806769415	0.520148493001559	0.39449180773157505	0.5479822939658229	0.8177139896765495	0.37035732380354613	0.4395248718739004	1.0819471441378041	0.3050758163294263	0.3756066348734398	1.1806712875845322	0.3241225565825335	0.3956402109506961	1.198172727293161	0.3621345883506917	0.4538201047731397	1.223110204625304	0.04180811901937032	0.5536395014984988	0.49321983866405844	-0.01598510595415288	0.5619608024349778	0.7785409439557652	-0.014566797242545127	0.478935919919027	1.0562618212348407	0.023453620037390675	0.4555485849153149	1.1530048620696873	-0.0024292639353087485	0.4487907906839214	1.1639759458512557	-0.03953223062983697	0.4748223866869648	1.1677588622198163
500	8.474576271186441	0.2961993955144992	0.509037710388241	0.9569596239153008	0.2847818316708649	0.5440711537665406	1.4683366872785308	0.279982385323924	0.5518106263960116	1.916988412888955	0.21892447632080084	0.36059597272056154	1.9376505581697119	0.28292402396080013	0.38841578279933664	1.955764962721347	0.25924149753569975	0.6377293250385399	2.003006827274778	0.0684860186739918	0.5457801505692025	0.9577428987511362	0.08424330068678372	0.5631022404861895	1.4605573422477993	0.06620108141547952	0.5647359998333642	1.8902508059256122	0.072501597678895	0.3895297230126805	1.9442048640125322	0.014692844769392541	0.4243641750719314	1.957239684144062	0.08602255890609116	0.6075480354839232	1.9481037754715536	0.20708047038231867	0.5121310307922403	0.4135920826791814	0.20685785070574936	0.4861774922766471	0.1597217069485248	0.19790716396551358	0.42572900698606675	0.2928783718020823	0.36345737563110747	0.5163256573166416	0.5184253156593551	0.3945025613279099	0.5480864854593868	0.8177275540661996	0.37024442526727214	0.43962996256461795	1.0820860980898668	0.3051361800394898	0.3757703480586963	1.1806942317237694	0.32137513367375853	0.40866671095250473	1.2036082795539815	0.3614926785054933	0.45434372852214433	1.2266834656561423	0.04191706136403725	0.5538787219711663	0.49322832180393117	-0.015952054638962616	0.5618970245645224	0.7786564218594676	-0.019379930080384276	0.49216708689888133	1.060902935990521	0.023433550038307688	0.4556227637119327	1.152958847842195	-0.005769884356043493	0.4460425528236775	1.1594047661964744	-0.04406392166689511	0.4872384338089335	1.1724888833207825
501	8.491525423728813	0.29628851523879285	0.5087460140903717	0.9568480369296868	0.2847677395947806	0.544126043288649	1.4684865992708966	0.275121428182255	0.5641155542411327	1.9248368263954538	0.21887940769937847	0.36059159547947356	1.9372565191719289	0.2829928012562985	0.3887275832453971	1.9556186258921315	0.2581154642031044	0.6352241684400433	2.0014093382950016	0.06780249221920422	0.54661808962032	0.9579974286326325	0.08385232409054941	0.564767169192741	1.4570382512527518	0.06621582782389716	0.564932243960214	1.890446664917101	0.07186137731012845	0.3911874351273212	1.954338481904273	0.013395193502029645	0.4249561603549008	1.9619219448147838	0.08598990626071892	0.6077586685083537	1.9481899448078708	0.20711622009436145	0.5122925151280425	0.41361299850997674	0.20687363518820753	0.4862819063871679	0.15972257444158908	0.19794693082946072	0.4256688653304176	0.29286447128136833	0.3677585190779805	0.5266419045649086	0.520097509540085	0.39436103498090724	0.5491013603467964	0.8142339166995404	0.37037496257736124	0.4395260113595419	1.082010320872699	0.30205526284214645	0.3657250369292681	1.173188099454252	0.32404212639654095	0.39545602733559576	1.198070972700707	0.36192826893777474	0.4541378753626463	1.2230972004766534	0.041920463566335706	0.5540767704999412	0.4931610450280838	-0.015943828757326865	0.561932756591883	0.7784273585650178	-0.019332446084006038	0.49210475711190854	1.060810159951695	0.02341836533408011	0.45563679365339277	1.1529235947762582	-0.005918297778282482	0.4459209827954982	1.1594136613793107	-0.0440687611466305	0.48773401325682075	1.1726580634780062
